<svg width="128" height="129" viewBox="0 0 128 129" fill="none" xmlns="http://www.w3.org/2000/svg">
<path d="M47.3501 13.6314C53.7946 11.4108 60.8535 11.8098 67.0067 14.7426C73.1599 17.6753 77.9153 22.9072 80.249 29.3116C82.5826 35.7161 82.3079 42.7809 79.4839 48.9847C76.6599 55.1886 71.5125 60.0354 65.1501 62.4814L47.3501 13.6314Z" stroke="#FFD666" stroke-width="9" stroke-linecap="round" stroke-linejoin="round"/>
<path d="M13.55 72.7314C11.3294 66.2868 11.7284 59.228 14.6612 53.0748C17.5939 46.9216 22.8258 42.1662 29.2302 39.8325C35.6347 37.4989 42.6994 37.7736 48.9033 40.5976C55.1072 43.4216 59.9539 48.569 62.4 54.9314L13.55 72.7314Z" stroke="#FFD666" stroke-width="9" stroke-linecap="round" stroke-linejoin="round"/>
<path d="M72.65 106.531C66.2055 108.752 59.1466 108.353 52.9934 105.42C46.8402 102.487 42.0848 97.2556 39.7512 90.8511C37.4175 84.4467 37.6922 77.3819 40.5162 71.178C43.3403 64.9742 48.4876 60.1274 54.85 57.6814L72.65 106.531Z" stroke="#FFD666" stroke-width="9" stroke-linecap="round" stroke-linejoin="round"/>
<path d="M106.45 47.4314C108.671 53.8759 108.272 60.9348 105.339 67.088C102.406 73.2412 97.1743 77.9966 90.7698 80.3303C84.3654 82.6639 77.3006 82.3892 71.0967 79.5652C64.8929 76.7412 60.0461 71.5938 57.6001 65.2314L106.45 47.4314Z" stroke="#FFD666" stroke-width="9" stroke-linecap="round" stroke-linejoin="round"/>
<path d="M82.25 82.3313L112 112.081" stroke="#FFD666" stroke-width="9" stroke-linecap="round" stroke-linejoin="round"/>
</svg>
