<svg width="137" height="168" viewBox="0 0 137 168" fill="none" xmlns="http://www.w3.org/2000/svg">
<circle cx="68" cy="50" r="50" fill="#0089A5"/>
<path d="M111.587 74.2442L68.4568 149.343L24.9848 74.4415L111.587 74.2442Z" fill="#0089A5"/>
<path d="M59.1548 24.6692C62.5784 23.5762 66.3284 23.7726 69.5973 25.2161C72.8662 26.6595 75.3925 29.2346 76.6323 32.3868C77.8721 35.539 77.7261 39.0162 76.2258 42.0697C74.7256 45.1231 71.9911 47.5086 68.611 48.7125L59.1548 24.6692Z" stroke="#FFD666" stroke-width="6" stroke-linecap="round" stroke-linejoin="round"/>
<path d="M41.1983 53.7574C40.0186 50.5855 40.2306 47.1112 41.7887 44.0827C43.3467 41.0542 46.1261 38.7136 49.5285 37.565C52.9308 36.4164 56.684 36.5517 59.9798 37.9416C63.2756 39.3315 65.8504 41.865 67.1499 44.9965L41.1983 53.7574Z" stroke="#FFD666" stroke-width="6" stroke-linecap="round" stroke-linejoin="round"/>
<path d="M72.5954 70.3933C69.1718 71.4863 65.4218 71.2899 62.1529 69.8464C58.884 68.403 56.3577 65.8279 55.1179 62.6757C53.8782 59.5235 54.0241 56.0463 55.5244 52.9929C57.0246 49.9394 59.7592 47.5539 63.1392 46.35L72.5954 70.3933Z" stroke="#FFD666" stroke-width="6" stroke-linecap="round" stroke-linejoin="round"/>
<path d="M90.5517 41.3051C91.7313 44.477 91.5194 47.9512 89.9613 50.9798C88.4033 54.0083 85.6239 56.3489 82.2215 57.4975C78.8191 58.6461 75.066 58.5108 71.7702 57.1209C68.4744 55.731 65.8995 53.1975 64.6001 50.066L90.5517 41.3051Z" stroke="#FFD666" stroke-width="6" stroke-linecap="round" stroke-linejoin="round"/>
<path d="M77.6953 58.4824L93.5 73.125" stroke="#FFD666" stroke-width="6" stroke-linecap="round" stroke-linejoin="round"/>
</svg>
