<svg width="102" height="102" viewBox="0 0 102 102" fill="none" xmlns="http://www.w3.org/2000/svg">
<g filter="url(#filter0_d_867_8788)">
<circle cx="50" cy="50" r="50" fill="#FFBD12"/>
</g>
<g filter="url(#filter1_d_867_8788)">
<path d="M37.216 41.756C39.064 41.756 40.736 42.1373 42.232 42.9C43.728 43.6333 44.9013 44.7773 45.752 46.332C46.632 47.8867 47.072 49.896 47.072 52.36V66H38.712V53.724C38.712 52.0227 38.36 50.7907 37.656 50.028C36.9813 49.236 36.028 48.84 34.796 48.84C33.916 48.84 33.1093 49.0453 32.376 49.456C31.6427 49.8373 31.0707 50.4387 30.66 51.26C30.2493 52.0813 30.044 53.152 30.044 54.472V66H21.684V33.352H30.044V48.928L28.108 46.948C29.0173 45.2173 30.264 43.9267 31.848 43.076C33.432 42.196 35.2213 41.756 37.216 41.756ZM59.2727 61.6L59.4927 51.612L69.2167 42.152H79.1167L68.3367 53.284L64.0687 56.716L59.2727 61.6ZM52.3207 66V33.352H60.6807V66H52.3207ZM69.8327 66L62.5287 56.848L67.7207 50.424L79.9527 66H69.8327Z" fill="#F4F5F7"/>
<path d="M42.232 42.9L41.7778 43.7909L41.7848 43.7945L41.7918 43.7979L42.232 42.9ZM45.752 46.332L44.8747 46.812L44.8782 46.8183L44.8817 46.8246L45.752 46.332ZM47.072 66V67H48.072V66H47.072ZM38.712 66H37.712V67H38.712V66ZM37.656 50.028L36.8948 50.6765L36.9077 50.6916L36.9212 50.7063L37.656 50.028ZM32.376 49.456L32.8374 50.3432L32.8511 50.3361L32.8646 50.3285L32.376 49.456ZM30.044 66V67H31.044V66H30.044ZM21.684 66H20.684V67H21.684V66ZM21.684 33.352V32.352H20.684V33.352H21.684ZM30.044 33.352H31.044V32.352H30.044V33.352ZM30.044 48.928L29.329 49.6271L31.044 51.3811V48.928H30.044ZM28.108 46.948L27.2228 46.4829L26.8844 47.1269L27.393 47.6471L28.108 46.948ZM31.848 43.076L32.3211 43.957L32.3274 43.9536L32.3336 43.9502L31.848 43.076ZM37.216 42.756C38.9223 42.756 40.4362 43.1069 41.7778 43.7909L42.6862 42.0091C41.0358 41.1677 39.2057 40.756 37.216 40.756V42.756ZM41.7918 43.7979C43.0904 44.4345 44.1165 45.4262 44.8747 46.812L46.6293 45.852C45.6862 44.1284 44.3656 42.8322 42.6722 42.0021L41.7918 43.7979ZM44.8817 46.8246C45.6505 48.1827 46.072 50.0062 46.072 52.36H48.072C48.072 49.7858 47.6135 47.5906 46.6223 45.8394L44.8817 46.8246ZM46.072 52.36V66H48.072V52.36H46.072ZM47.072 65H38.712V67H47.072V65ZM39.712 66V53.724H37.712V66H39.712ZM39.712 53.724C39.712 51.9225 39.3458 50.3843 38.3908 49.3497L36.9212 50.7063C37.3742 51.197 37.712 52.1228 37.712 53.724H39.712ZM38.4172 49.3795C37.5171 48.3228 36.2614 47.84 34.796 47.84V49.84C35.7946 49.84 36.4456 50.1492 36.8948 50.6765L38.4172 49.3795ZM34.796 47.84C33.7533 47.84 32.7771 48.0852 31.8874 48.5835L32.8646 50.3285C33.4415 50.0054 34.0787 49.84 34.796 49.84V47.84ZM31.9146 48.5688C30.9735 49.0582 30.2596 49.8247 29.7656 50.8128L31.5544 51.7072C31.8817 51.0526 32.3118 50.6165 32.8374 50.3432L31.9146 48.5688ZM29.7656 50.8128C29.2619 51.8202 29.044 53.0599 29.044 54.472H31.044C31.044 53.244 31.2368 52.3425 31.5544 51.7072L29.7656 50.8128ZM29.044 54.472V66H31.044V54.472H29.044ZM30.044 65H21.684V67H30.044V65ZM22.684 66V33.352H20.684V66H22.684ZM21.684 34.352H30.044V32.352H21.684V34.352ZM29.044 33.352V48.928H31.044V33.352H29.044ZM30.759 48.2289L28.823 46.2489L27.393 47.6471L29.329 49.6271L30.759 48.2289ZM28.9932 47.4131C29.8183 45.8429 30.9283 44.705 32.3211 43.957L31.3749 42.195C29.5997 43.1483 28.2164 44.5917 27.2228 46.4829L28.9932 47.4131ZM32.3336 43.9502C33.7545 43.1608 35.3737 42.756 37.216 42.756V40.756C35.0689 40.756 33.1095 41.2312 31.3624 42.2018L32.3336 43.9502ZM59.2727 61.6L58.273 61.578L58.2174 64.102L59.9862 62.3006L59.2727 61.6ZM59.4927 51.612L58.7954 50.8952L58.502 51.1807L58.493 51.59L59.4927 51.612ZM69.2167 42.152V41.152H68.8105L68.5194 41.4352L69.2167 42.152ZM79.1167 42.152L79.8351 42.8477L81.4771 41.152H79.1167V42.152ZM68.3367 53.284L68.9634 54.0633L69.0118 54.0243L69.0551 53.9797L68.3367 53.284ZM64.0687 56.716L63.4421 55.9367L63.3963 55.9735L63.3552 56.0153L64.0687 56.716ZM52.3207 66H51.3207V67H52.3207V66ZM52.3207 33.352V32.352H51.3207V33.352H52.3207ZM60.6807 33.352H61.6807V32.352H60.6807V33.352ZM60.6807 66V67H61.6807V66H60.6807ZM69.8327 66L69.0511 66.6238L69.3514 67H69.8327V66ZM62.5287 56.848L61.751 56.2194L61.2461 56.844L61.7471 57.4718L62.5287 56.848ZM67.7207 50.424L68.5072 49.8064L67.732 48.8192L66.943 49.7954L67.7207 50.424ZM79.9527 66V67H82.0095L80.7392 65.3824L79.9527 66ZM60.2725 61.622L60.4925 51.634L58.493 51.59L58.273 61.578L60.2725 61.622ZM60.19 52.3288L69.914 42.8688L68.5194 41.4352L58.7954 50.8952L60.19 52.3288ZM69.2167 43.152H79.1167V41.152H69.2167V43.152ZM78.3983 41.4563L67.6183 52.5883L69.0551 53.9797L79.8351 42.8477L78.3983 41.4563ZM67.7101 52.5047L63.4421 55.9367L64.6954 57.4953L68.9634 54.0633L67.7101 52.5047ZM63.3552 56.0153L58.5592 60.8994L59.9862 62.3006L64.7822 57.4166L63.3552 56.0153ZM53.3207 66V33.352H51.3207V66H53.3207ZM52.3207 34.352H60.6807V32.352H52.3207V34.352ZM59.6807 33.352V66H61.6807V33.352H59.6807ZM60.6807 65H52.3207V67H60.6807V65ZM70.6143 65.3762L63.3103 56.2242L61.7471 57.4718L69.0511 66.6238L70.6143 65.3762ZM63.3065 57.4766L68.4985 51.0526L66.943 49.7954L61.751 56.2194L63.3065 57.4766ZM66.9342 51.0416L79.1662 66.6176L80.7392 65.3824L68.5072 49.8064L66.9342 51.0416ZM79.9527 65H69.8327V67H79.9527V65Z" fill="#18191F"/>
</g>
<defs>
<filter id="filter0_d_867_8788" x="0" y="0" width="102" height="102" filterUnits="userSpaceOnUse" color-interpolation-filters="sRGB">
<feFlood flood-opacity="0" result="BackgroundImageFix"/>
<feColorMatrix in="SourceAlpha" type="matrix" values="0 0 0 0 0 0 0 0 0 0 0 0 0 0 0 0 0 0 127 0" result="hardAlpha"/>
<feOffset dx="2" dy="2"/>
<feColorMatrix type="matrix" values="0 0 0 0 0.0941176 0 0 0 0 0.0980392 0 0 0 0 0.121569 0 0 0 1 0"/>
<feBlend mode="normal" in2="BackgroundImageFix" result="effect1_dropShadow_867_8788"/>
<feBlend mode="normal" in="SourceGraphic" in2="effect1_dropShadow_867_8788" result="shape"/>
</filter>
<filter id="filter1_d_867_8788" x="21.6841" y="33.3521" width="60.2686" height="34.6479" filterUnits="userSpaceOnUse" color-interpolation-filters="sRGB">
<feFlood flood-opacity="0" result="BackgroundImageFix"/>
<feColorMatrix in="SourceAlpha" type="matrix" values="0 0 0 0 0 0 0 0 0 0 0 0 0 0 0 0 0 0 127 0" result="hardAlpha"/>
<feOffset dx="2" dy="2"/>
<feColorMatrix type="matrix" values="0 0 0 0 0.0941176 0 0 0 0 0.0980392 0 0 0 0 0.121569 0 0 0 1 0"/>
<feBlend mode="normal" in2="BackgroundImageFix" result="effect1_dropShadow_867_8788"/>
<feBlend mode="normal" in="SourceGraphic" in2="effect1_dropShadow_867_8788" result="shape"/>
</filter>
</defs>
</svg>
