<svg width="150" height="150" viewBox="0 0 500 500" fill="none" xmlns="http://www.w3.org/2000/svg">
<path d="M184.961 52.9297C210.135 44.2556 237.709 45.8143 261.745 57.2704C285.781 68.7264 304.357 89.1634 313.473 114.181C322.588 139.198 321.515 166.795 310.484 191.029C299.453 215.263 279.346 234.195 254.493 243.75L184.961 52.9297Z" stroke="#FFD666" stroke-width="55" stroke-linecap="round" stroke-linejoin="round"/>
<path d="M52.9294 283.789C44.2552 258.615 45.814 231.042 57.27 207.006C68.7261 182.97 89.1631 164.394 114.18 155.278C139.198 146.162 166.795 147.235 191.028 158.267C215.262 169.298 234.195 189.405 243.75 214.258L52.9294 283.789Z" stroke="#FFD666" stroke-width="55" stroke-linecap="round" stroke-linejoin="round"/>
<path d="M283.789 415.82C258.615 424.495 231.042 422.936 207.006 411.48C182.97 400.024 164.394 379.587 155.278 354.569C146.162 329.552 147.235 301.955 158.267 277.721C169.298 253.487 189.405 234.555 214.258 225L283.789 415.82Z" stroke="#FFD666" stroke-width="55" stroke-linecap="round" stroke-linejoin="round"/>
<path d="M415.821 184.961C424.495 210.135 422.936 237.708 411.48 261.744C400.024 285.78 379.587 304.356 354.57 313.472C329.552 322.588 301.956 321.515 277.722 310.483C253.488 299.452 234.555 279.345 225 254.492L415.821 184.961Z" stroke="#FFD666" stroke-width="55" stroke-linecap="round" stroke-linejoin="round"/>
<path d="M321.289 321.289L437.5 437.5" stroke="#FFD666" stroke-width="55" stroke-linecap="round" stroke-linejoin="round"/>
</svg>
